<?xml version="1.0" ?><svg style="enable-background:new 0 0 48 48;" version="1.1" viewBox="0 0 48 48" xml:space="preserve" xmlns="http://www.w3.org/2000/svg" xmlns:xlink="http://www.w3.org/1999/xlink"><g id="Icons"><g id="Icons_13_"><g><path d="M24,8.655c-8.47,0-15.34,6.87-15.34,15.35c0,8.47,6.87,15.34,15.34,15.34     c8.4699,0,15.34-6.87,15.34-15.34C39.34,15.525,32.47,8.655,24,8.655z M32.18,19.815c0,0-0.03,1.88-0.31,3.06     c-0.28,1.17-1.22,4.44-4.02,6.74s-6.22,2.8-8.16,2.67c-1.93-0.13-4.31-0.87-5.84-1.82c0,0,3.51,0.38,6.1-1.76     c0,0-2.62,0.12-3.86-2.89c0,0,0.89,0.16,1.86-0.11c0,0-3.3-0.6-3.34-4.15c0,0,1.08,0.53,1.88,0.48c0,0-3.15-2.41-1.23-5.52     c0,0,3.1499,4.18,8.63,4.34c-1.33-3.67,4.63-7.1499,7.0799-3.81c0,0,0.9501-0.03,2.69-0.97c0,0-0.4199,1.32-1.75,2.2     c0,0,1-0.01,2.2301-0.54C34.05,17.875,33.3,19.025,32.18,19.815z" style="fill:#4AA0EC;"/></g></g></g></svg>